<svg xmlns="http://www.w3.org/2000/svg" width="100%" height="100%" viewBox="0 0 1200 300"><defs><linearGradient id="bgGrad" x1="0%" x2="100%" y1="0%" y2="100%"><stop offset="0%" stop-color="#0f172a"/><stop offset="50%" stop-color="#1e1b4b"/><stop offset="100%" stop-color="#0f172a"/></linearGradient><linearGradient id="cyanGrad" x1="0%" x2="100%" y1="0%" y2="0%"><stop offset="0%" stop-color="#06b6d4"/><stop offset="100%" stop-color="#3b82f6"/></linearGradient><linearGradient id="purpleGrad" x1="0%" x2="100%" y1="0%" y2="100%"><stop offset="0%" stop-color="#8b5cf6" stop-opacity=".3"/><stop offset="100%" stop-color="#d946ef" stop-opacity=".05"/></linearGradient><filter id="glow" width="140%" height="140%" x="-20%" y="-20%"><feGaussianBlur result="blur" stdDeviation="8"/><feComposite in="SourceGraphic" in2="blur" operator="over"/></filter></defs><rect width="1200" height="300" fill="url(#bgGrad)" rx="16"/><circle cx="150" cy="80" r="120" fill="url(#purpleGrad)"><animate attributeName="cy" dur="8s" repeatCount="indefinite" values="80;100;80"/></circle><circle cx="1050" cy="220" r="140" fill="url(#purpleGrad)"><animate attributeName="cy" dur="10s" repeatCount="indefinite" values="220;190;220"/></circle><path fill="none" stroke="url(#cyanGrad)" stroke-width="2" d="M-100 220 Q 300 120 600 220 T 1300 180" opacity=".3"><animate attributeName="d" dur="12s" repeatCount="indefinite" values="M-100 220 Q 300 120 600 220 T 1300 180; M-100 180 Q 300 240 600 180 T 1300 220; M-100 220 Q 300 120 600 220 T 1300 180"/></path><path fill="none" stroke="#8b5cf6" stroke-width="1.5" d="M-100 250 Q 300 280 600 200 T 1300 260" opacity=".25"><animate attributeName="d" dur="9s" repeatCount="indefinite" values="M-100 250 Q 300 280 600 200 T 1300 260; M-100 210 Q 300 170 600 240 T 1300 200; M-100 250 Q 300 280 600 200 T 1300 260"/></path><g transform="translate(100, 90)"><rect width="70" height="60" x="0" y="40" fill="#1e293b" stroke="#06b6d4" stroke-width="3" filter="url(#glow)" rx="8"/><path fill="none" stroke="#06b6d4" stroke-linecap="round" stroke-width="4" d="M 15 40 V 22 A 20 20 0 0 1 55 22 V 40"/><circle cx="35" cy="65" r="6" fill="#38bdf8"><animate attributeName="opacity" dur="2s" repeatCount="indefinite" values="0.4;1;0.4"/></circle><path stroke="#38bdf8" stroke-width="3" d="M 35 71 V 82"/></g><g opacity=".85"><path fill="#1e293b" stroke="#8b5cf6" stroke-width="3" d="M 20 50 A 25 25 0 0 1 65 30 A 35 35 0 0 1 125 45 A 25 25 0 0 1 120 85 H 20 A 20 20 0 0 1 20 50 Z" filter="url(#glow)" transform="translate(1010, 95)"><animate attributeName="stroke" dur="6s" repeatCount="indefinite" values="#8b5cf6;#06b6d4;#8b5cf6"/></path></g><text x="600" y="115" fill="#fff" font-family="system-ui, -apple-system, 'Segoe UI', Roboto, sans-serif" font-size="40" font-weight="800" letter-spacing="1" text-anchor="middle">Awesome Cloud HSM 🔐 🏛️</text><text x="600" y="165" fill="#cbd5e1" font-family="system-ui, -apple-system, 'Segoe UI', Roboto, sans-serif" font-size="20" font-weight="500" letter-spacing=".5" text-anchor="middle">Hardware Security Modules • Cloud Key Management • PKCS#11 • Post-Quantum Security</text><g><g transform="translate(600, 220) translate(-240, 0)"><rect width="160" height="36" x="-80" y="-18" fill="#1e293b" stroke="#38bdf8" stroke-width="1.5" rx="18"/><text x="0" y="5" fill="#38bdf8" font-family="sans-serif" font-size="14" font-weight="600" text-anchor="middle">☁️ Cloud HSM</text></g><g transform="translate(600, 220) translate(0, 0)"><rect width="160" height="36" x="-80" y="-18" fill="#1e293b" stroke="#a855f7" stroke-width="1.5" rx="18"/><text x="0" y="5" fill="#c084fc" font-family="sans-serif" font-size="14" font-weight="600" text-anchor="middle">🗝️ PKCS#11</text></g><g transform="translate(600, 220) translate(240, 0)"><rect width="160" height="36" x="-80" y="-18" fill="#1e293b" stroke="#34d399" stroke-width="1.5" rx="18"/><text x="0" y="5" fill="#34d399" font-family="sans-serif" font-size="14" font-weight="600" text-anchor="middle">🛡️ PQC Ready</text></g></g></svg>